<svg width="29" height="28" viewBox="0 0 29 28" fill="none" xmlns="http://www.w3.org/2000/svg">
<path d="M13.1888 2.96582C12.4271 2.96582 11.8096 3.5833 11.8096 4.34499C11.8096 5.10668 12.4271 5.72416 13.1888 5.72416H15.9472C16.7088 5.72416 17.3263 5.10668 17.3263 4.34499C17.3263 3.5833 16.7088 2.96582 15.9472 2.96582H13.1888Z" fill="#21272A"/>
<path fill-rule="evenodd" clip-rule="evenodd" d="M6.29297 7.10333C6.29297 5.57994 7.52792 4.34499 9.05131 4.34499C9.05131 6.63007 10.9037 8.48249 13.1888 8.48249H15.9472C18.2322 8.48249 20.0847 6.63007 20.0847 4.34499C21.608 4.34499 22.843 5.57994 22.843 7.10333V22.2742C22.843 23.7976 21.608 25.0325 20.0847 25.0325H9.05131C7.52792 25.0325 6.29297 23.7976 6.29297 22.2742V7.10333ZM10.4305 12.62C9.66878 12.62 9.05131 13.2375 9.05131 13.9992C9.05131 14.7609 9.66878 15.3783 10.4305 15.3783H10.4443C11.206 15.3783 11.8234 14.7609 11.8234 13.9992C11.8234 13.2375 11.206 12.62 10.4443 12.62H10.4305ZM14.568 12.62C13.8063 12.62 13.1888 13.2375 13.1888 13.9992C13.1888 14.7609 13.8063 15.3783 14.568 15.3783H18.7055C19.4672 15.3783 20.0847 14.7609 20.0847 13.9992C20.0847 13.2375 19.4672 12.62 18.7055 12.62H14.568ZM10.4305 18.1367C9.66878 18.1367 9.05131 18.7542 9.05131 19.5158C9.05131 20.2775 9.66878 20.895 10.4305 20.895H10.4443C11.206 20.895 11.8234 20.2775 11.8234 19.5158C11.8234 18.7542 11.206 18.1367 10.4443 18.1367H10.4305ZM14.568 18.1367C13.8063 18.1367 13.1888 18.7542 13.1888 19.5158C13.1888 20.2775 13.8063 20.895 14.568 20.895H18.7055C19.4672 20.895 20.0847 20.2775 20.0847 19.5158C20.0847 18.7542 19.4672 18.1367 18.7055 18.1367H14.568Z" fill="#21272A"/>
</svg>
