<svg width="17" height="21" viewBox="0 0 17 21" fill="none" xmlns="http://www.w3.org/2000/svg">
<path fill-rule="evenodd" clip-rule="evenodd" d="M0 2.75834C0 1.23495 1.23495 0 2.75834 0C2.75834 2.28508 4.61073 4.1375 6.89583 4.1375H9.65423C11.9392 4.1375 13.7917 2.28508 13.7917 0C15.315 0 16.55 1.23495 16.55 2.75834V17.9292C16.55 19.4526 15.315 20.6875 13.7917 20.6875H2.75834C1.23495 20.6875 0 19.4526 0 17.9292V2.75834ZM5 9.5C5 10.3284 4.32843 11 3.5 11C2.67157 11 2 10.3284 2 9.5C2 8.67157 2.67157 8 3.5 8C4.32843 8 5 8.67157 5 9.5ZM3.5 17C4.32843 17 5 16.3284 5 15.5C5 14.6716 4.32843 14 3.5 14C2.67157 14 2 14.6716 2 15.5C2 16.3284 2.67157 17 3.5 17ZM12.7996 8H9.2C8.53726 8 8 8.67157 8 9.5C8 10.3284 8.53726 11 9.2 11H12.7996H12.8C13.4626 10.9997 13.9996 10.3283 13.9996 9.5C13.9996 8.67174 13.4626 8.00026 12.8 8H12.7996ZM9.2 14H12.7996C12.7997 14 12.7999 14 12.8 14C13.4626 14.0003 13.9996 14.6717 13.9996 15.5C13.9996 16.3283 13.4626 16.9997 12.8 17C12.7999 17 12.7997 17 12.7996 17H9.2C8.53726 17 8 16.3284 8 15.5C8 14.6716 8.53726 14 9.2 14Z" fill="#21272A"/>
</svg>
