<svg width="36" height="36" viewBox="0 0 36 36" fill="none" xmlns="http://www.w3.org/2000/svg">
<path d="M23.4008 10.8004C23.4008 13.7827 20.9831 16.2004 18.0008 16.2004C15.0184 16.2004 12.6008 13.7827 12.6008 10.8004C12.6008 7.81805 15.0184 5.40039 18.0008 5.40039C20.9831 5.40039 23.4008 7.81805 23.4008 10.8004Z" fill="#FCF119"/>
<path d="M32.4008 14.4004C32.4008 16.3886 30.789 18.0004 28.8008 18.0004C26.8126 18.0004 25.2008 16.3886 25.2008 14.4004C25.2008 12.4122 26.8126 10.8004 28.8008 10.8004C30.789 10.8004 32.4008 12.4122 32.4008 14.4004Z" fill="#FCF119"/>
<path d="M25.2008 27.0004C25.2008 23.0239 21.9772 19.8004 18.0008 19.8004C14.0243 19.8004 10.8008 23.0239 10.8008 27.0004V32.4004H25.2008V27.0004Z" fill="#FCF119"/>
<path d="M10.8008 14.4004C10.8008 16.3886 9.18901 18.0004 7.20078 18.0004C5.21256 18.0004 3.60078 16.3886 3.60078 14.4004C3.60078 12.4122 5.21256 10.8004 7.20078 10.8004C9.18901 10.8004 10.8008 12.4122 10.8008 14.4004Z" fill="#FCF119"/>
<path d="M28.8008 32.4004V27.0004C28.8008 25.1029 28.3115 23.3198 27.4521 21.7702C27.8832 21.6593 28.3351 21.6004 28.8008 21.6004C31.7831 21.6004 34.2008 24.0181 34.2008 27.0004V32.4004H28.8008Z" fill="#FCF119"/>
<path d="M8.54945 21.7702C7.69011 23.3198 7.20078 25.1029 7.20078 27.0004V32.4004H1.80078V27.0004C1.80078 24.0181 4.21844 21.6004 7.20078 21.6004C7.66646 21.6004 8.11837 21.6593 8.54945 21.7702Z" fill="#FCF119"/>
</svg>
