<svg width="32" height="32" viewBox="0 0 32 32" fill="none" xmlns="http://www.w3.org/2000/svg">
<path d="M21.8331 4.33313C23.3789 4.33774 24.8601 4.95385 25.9531 6.04689C27.0462 7.13993 27.6623 8.62109 27.6669 10.1669V21.8331C27.6623 23.3789 27.0462 24.8601 25.9531 25.9531C24.8601 27.0462 23.3789 27.6623 21.8331 27.6669H10.1669C8.62109 27.6623 7.13993 27.0462 6.04689 25.9531C4.95385 24.8601 4.33774 23.3789 4.33313 21.8331V10.1669C4.33774 8.62109 4.95385 7.13993 6.04689 6.04689C7.13993 4.95385 8.62109 4.33774 10.1669 4.33313H21.8331ZM21.8331 2H10.1669C5.675 2 2 5.675 2 10.1669V21.8331C2 26.325 5.675 30 10.1669 30H21.8331C26.325 30 30 26.325 30 21.8331V10.1669C30 5.675 26.325 2 21.8331 2Z" fill="#FEF214"/>
<path d="M23.583 10.1665C23.2369 10.1665 22.8985 10.0639 22.6108 9.87158C22.323 9.67928 22.0987 9.40597 21.9662 9.0862C21.8338 8.76643 21.7991 8.41456 21.8666 8.0751C21.9342 7.73563 22.1008 7.42381 22.3456 7.17907C22.5903 6.93433 22.9021 6.76765 23.2416 6.70013C23.5811 6.63261 23.9329 6.66726 24.2527 6.79972C24.5725 6.93217 24.8458 7.15647 25.0381 7.44426C25.2304 7.73204 25.333 8.07039 25.333 8.4165C25.3335 8.64646 25.2886 8.87424 25.2008 9.08678C25.113 9.29933 24.9841 9.49244 24.8215 9.65504C24.6589 9.81765 24.4658 9.94653 24.2533 10.0343C24.0407 10.1221 23.813 10.167 23.583 10.1665Z" fill="#FEF214"/>
<path d="M16 11.3331C16.923 11.3331 17.8253 11.6068 18.5928 12.1196C19.3602 12.6324 19.9584 13.3613 20.3116 14.2141C20.6649 15.0668 20.7573 16.0052 20.5772 16.9105C20.3971 17.8157 19.9527 18.6473 19.3 19.3C18.6473 19.9527 17.8157 20.3971 16.9105 20.5772C16.0052 20.7573 15.0668 20.6649 14.2141 20.3116C13.3613 19.9584 12.6324 19.3602 12.1196 18.5928C11.6068 17.8253 11.3331 16.923 11.3331 16C11.3345 14.7627 11.8266 13.5764 12.7015 12.7015C13.5764 11.8266 14.7627 11.3344 16 11.3331ZM16 9C14.6155 9 13.2622 9.41054 12.111 10.1797C10.9599 10.9489 10.0627 12.0421 9.53285 13.3212C9.00303 14.6003 8.86441 16.0078 9.13451 17.3656C9.4046 18.7235 10.0713 19.9708 11.0503 20.9497C12.0292 21.9287 13.2765 22.5954 14.6344 22.8655C15.9922 23.1356 17.3997 22.997 18.6788 22.4672C19.9579 21.9373 21.0511 21.0401 21.8203 19.889C22.5895 18.7378 23 17.3845 23 16C23 14.1435 22.2625 12.363 20.9497 11.0503C19.637 9.7375 17.8565 9 16 9Z" fill="#FEF214"/>
</svg>
