<svg width="23" height="24" viewBox="0 0 23 24" fill="none" xmlns="http://www.w3.org/2000/svg">
<path d="M2.875 5C2.875 3.89543 3.73312 3 4.79167 3H7.93427C8.34677 3 8.71298 3.27543 8.84343 3.68377L10.2788 8.17721C10.4296 8.64932 10.2248 9.16531 9.79826 9.38787L7.63505 10.5165C8.69136 12.9612 10.5788 14.9308 12.9217 16.033L14.0033 13.7757C14.2166 13.3306 14.7111 13.1169 15.1635 13.2743L19.4697 14.7721C19.861 14.9082 20.125 15.2903 20.125 15.7208V19C20.125 20.1046 19.2669 21 18.2083 21H17.25C9.31091 21 2.875 14.2843 2.875 6V5Z" stroke="#122235" stroke-width="2" stroke-linecap="round" stroke-linejoin="round"/>
</svg>
