<svg width="31" height="31" viewBox="0 0 31 31" fill="none" xmlns="http://www.w3.org/2000/svg">
<path d="M12.0391 23.8306C12.0391 25.0773 11.0284 26.0879 9.78174 26.0879C8.53505 26.0879 7.52441 25.0773 7.52441 23.8306C7.52441 22.5839 8.53505 21.5732 9.78174 21.5732C11.0284 21.5732 12.0391 22.5839 12.0391 23.8306Z" fill="#122235"/>
<path d="M22.5732 23.8306C22.5732 25.0773 21.5626 26.0879 20.3159 26.0879C19.0692 26.0879 18.0586 25.0773 18.0586 23.8306C18.0586 22.5839 19.0692 21.5732 20.3159 21.5732C21.5626 21.5732 22.5732 22.5839 22.5732 23.8306Z" fill="#122235"/>
<path d="M4.51465 5.01953C3.68352 5.01953 3.00977 5.69329 3.00977 6.52441V21.5732C3.00977 22.4044 3.68352 23.0781 4.51465 23.0781H6.09479C6.44337 21.3609 7.96161 20.0684 9.78174 20.0684C11.6019 20.0684 13.1201 21.3609 13.4687 23.0781H15.0488C15.88 23.0781 16.5537 22.4044 16.5537 21.5732V6.52441C16.5537 5.69329 15.88 5.01953 15.0488 5.01953H4.51465Z" fill="#122235"/>
<path d="M21.0684 9.53418C20.2372 9.53418 19.5635 10.2079 19.5635 11.0391V20.1436C19.8066 20.0943 20.0582 20.0684 20.3159 20.0684C22.136 20.0684 23.6543 21.3609 24.0029 23.0781H25.583C26.4141 23.0781 27.0879 22.4044 27.0879 21.5732V14.0488C27.0879 13.6497 26.9293 13.2669 26.6471 12.9847L23.6374 9.97495C23.3551 9.69273 22.9724 9.53418 22.5732 9.53418H21.0684Z" fill="#122235"/>
</svg>
