<svg width="29" height="29" viewBox="0 0 29 29" fill="none" xmlns="http://www.w3.org/2000/svg">
<path fill-rule="evenodd" clip-rule="evenodd" d="M24.7749 4.21412C23.4343 2.87292 21.8417 1.81011 20.0888 1.08689C18.3358 0.363661 16.4571 -0.00570058 14.5608 6.65054e-05C6.60267 6.65054e-05 0.124285 6.44608 0.121049 14.3706C0.117528 16.8939 0.782672 19.3731 2.04877 21.5558L0 29L7.65456 27.0017C9.77338 28.1496 12.1452 28.7503 14.555 28.7495H14.5608C22.5183 28.7495 28.9961 22.3028 29 14.379C29.0048 12.4892 28.6337 10.6173 27.9084 8.8722C27.183 7.12712 26.1179 5.54372 24.7749 4.21412ZM14.5608 26.324H14.5556C12.4074 26.3246 10.2983 25.7497 8.44753 24.6591L8.00929 24.4002L3.46705 25.5861L4.67948 21.1785L4.39401 20.7253C3.19283 18.8236 2.55643 16.6199 2.55886 14.3706C2.55886 7.78539 7.94521 2.42752 14.5654 2.42752C17.7411 2.42185 20.7891 3.67784 23.0388 5.91924C25.2886 8.16065 26.556 11.2039 26.5621 14.3796C26.5596 20.9655 21.1758 26.324 14.5608 26.324ZM21.1434 17.3787C20.7829 17.1987 19.0073 16.33 18.6784 16.2103C18.3496 16.0905 18.1068 16.0303 17.8667 16.3902C17.6265 16.7501 16.9345 17.5554 16.7242 17.7981C16.5138 18.0409 16.3034 18.0674 15.9429 17.8875C15.5823 17.7075 14.4191 17.3288 13.0409 16.1054C11.9683 15.1532 11.2446 13.9777 11.0342 13.6184C10.8238 13.2591 11.0116 13.0643 11.1922 12.8856C11.3546 12.7244 11.5527 12.4662 11.7333 12.2564C11.9139 12.0467 11.9741 11.8965 12.0939 11.657C12.2136 11.4175 12.1541 11.2078 12.0641 11.0285C11.9741 10.8492 11.2524 9.08132 10.952 8.36215C10.6588 7.66175 10.3617 7.75691 10.1403 7.7459C9.92989 7.73555 9.68715 7.73296 9.44829 7.73296C9.26569 7.73771 9.08602 7.78006 8.92052 7.85735C8.75502 7.93465 8.60722 8.04523 8.48637 8.1822C8.15559 8.54211 7.22345 9.41211 7.22345 11.178C7.22345 12.9439 8.51809 14.6528 8.69675 14.8923C8.87541 15.1318 11.2407 18.7588 14.8599 20.3143C15.5319 20.6021 16.2186 20.8545 16.9171 21.0703C17.7812 21.3435 18.5677 21.3053 19.1892 21.2128C19.8824 21.1098 21.3253 20.3441 21.625 19.5051C21.9247 18.6662 21.9254 17.9477 21.8354 17.7981C21.7454 17.6486 21.5046 17.558 21.1434 17.3787Z" fill="white"/>
</svg>
